<svg width="46" height="46" viewBox="0 0 46 46" fill="none" xmlns="http://www.w3.org/2000/svg">
<path d="M36.3333 3H9.66669C5.98478 3 3 5.98478 3 9.66669V36.3333C3 40.0152 5.98478 43 9.66669 43H36.3333C40.0152 43 43 40.0152 43 36.3333V9.66669C43 5.98478 40.0152 3 36.3333 3Z" fill="url(#paint0_linear_2542_384)" fill-opacity="0.2"/>
<rect x="1" y="1" width="44" height="44" rx="6.6" fill="url(#paint1_linear_2542_384)"/>
<rect x="0.5" y="0.5" width="45" height="45" rx="7.1" stroke="white" stroke-opacity="0.4"/>
<path fill-rule="evenodd" clip-rule="evenodd" d="M18.1975 11.035L28.9139 11.035C29.3912 11.035 29.7781 11.4219 29.7781 11.8992L29.7781 17.9488C29.7781 18.4261 29.3912 18.8131 28.9139 18.8131L18.1975 18.8131C17.7202 18.8131 17.3332 18.4261 17.3332 17.9488L17.3332 11.8992C17.3332 11.4219 17.7202 11.035 18.1975 11.035Z" stroke="#133B84" stroke-width="1.5"/>
<path fill-rule="evenodd" clip-rule="evenodd" d="M8.32638 29.7796L19.0428 29.7796C19.5201 29.7796 19.9071 30.1666 19.9071 30.6439L19.9071 34.1008C19.9071 34.5781 19.5201 34.965 19.0428 34.965L8.32638 34.965C7.84908 34.965 7.46215 34.5781 7.46215 34.1008L7.46215 30.6439C7.46215 30.1666 7.84908 29.7796 8.32638 29.7796Z" stroke="#133B84" stroke-width="1.5"/>
<path fill-rule="evenodd" clip-rule="evenodd" d="M27.9572 29.7796L38.6737 29.7796C39.151 29.7796 39.5379 30.1666 39.5379 30.6439L39.5379 34.1008C39.5379 34.5781 39.151 34.965 38.6737 34.965L27.9572 34.965C27.4799 34.965 27.093 34.5781 27.093 34.1008L27.093 30.6439C27.093 30.1666 27.4799 29.7796 27.9572 29.7796Z" stroke="#133B84" stroke-width="1.5"/>
<path d="M23.624 18.7839V24.1727" stroke="#133B84" stroke-width="1.5"/>
<path d="M33.3947 30.358V25.9011C33.3947 24.9465 32.6209 24.1726 31.6663 24.1726H15.3349C14.3803 24.1726 13.6064 24.9465 13.6064 25.9011V30.358" stroke="#133B84" stroke-width="1.5"/>
<path d="M36.3333 3H9.66669C5.98478 3 3 5.98478 3 9.66669V36.3333C3 40.0152 5.98478 43 9.66669 43H36.3333C40.0152 43 43 40.0152 43 36.3333V9.66669C43 5.98478 40.0152 3 36.3333 3Z" fill="url(#paint2_linear_2542_384)" fill-opacity="0.2"/>
<rect x="1" y="1" width="44" height="44" rx="6" fill="url(#paint3_linear_2542_384)"/>
<rect x="0.5" y="0.5" width="45" height="45" rx="6.5" stroke="white" stroke-opacity="0.4"/>
<g clip-path="url(#clip0_2542_384)">
<rect x="9.03516" y="28.0432" width="4.20571" height="12.6171" rx="1.60004" transform="rotate(-45 9.03516 28.0432)" stroke="#133B84" stroke-width="1.5"/>
<rect x="9.7793" y="22.8391" width="5.25714" height="18.9257" rx="1.60004" transform="rotate(-45 9.7793 22.8391)" stroke="#133B84" stroke-width="1.5"/>
<rect x="37.291" y="17.6343" width="4.20571" height="12.6171" rx="1.60004" transform="rotate(135 37.291 17.6343)" stroke="#133B84" stroke-width="1.5"/>
<rect x="36.5469" y="22.8386" width="5.25714" height="18.9257" rx="1.60004" transform="rotate(135 36.5469 22.8386)" stroke="#133B84" stroke-width="1.5"/>
<path d="M20.1904 25.8125L25.9247 20.0782" stroke="#133B84" stroke-width="1.5" stroke-linecap="round"/>
<path d="M11.6885 34.3145L13.1754 32.8275" stroke="#133B84" stroke-width="1.5" stroke-linecap="round"/>
<path d="M32.8281 13.1736L34.3151 11.6866" stroke="#133B84" stroke-width="1.5" stroke-linecap="round"/>
</g>
<defs>
<linearGradient id="paint0_linear_2542_384" x1="43" y1="6.32943" x2="3" y2="39.6706" gradientUnits="userSpaceOnUse">
<stop stop-color="#2F77FB"/>
<stop offset="1" stop-color="#A6C5FF"/>
</linearGradient>
<linearGradient id="paint1_linear_2542_384" x1="6.37769" y1="1" x2="39.6223" y2="45" gradientUnits="userSpaceOnUse">
<stop stop-color="#ECF3FF"/>
<stop offset="1" stop-color="#76A7FF"/>
</linearGradient>
<linearGradient id="paint2_linear_2542_384" x1="43" y1="6.32943" x2="3" y2="39.6706" gradientUnits="userSpaceOnUse">
<stop stop-color="#2F77FB"/>
<stop offset="1" stop-color="#A6C5FF"/>
</linearGradient>
<linearGradient id="paint3_linear_2542_384" x1="6.37769" y1="1" x2="39.6223" y2="45" gradientUnits="userSpaceOnUse">
<stop stop-color="#ECF3FF"/>
<stop offset="1" stop-color="#76A7FF"/>
</linearGradient>
<clipPath id="clip0_2542_384">
<rect width="32" height="32" fill="white" transform="translate(7.00098 7)"/>
</clipPath>
</defs>
</svg>
